<svg
	id="Layer_1"
	data-name="Layer 1"
	xmlns="http://www.w3.org/2000/svg"
	viewBox="0 0 383 122"
>
	<defs>
		<style>
			.cls-1 {
				fill: #ffffff;
			}
		</style>
	</defs>
	<title>piggy-svg</title>
	<path
		class="cls-1"
		d="M104.17,82.66V96.14H95.71V52.27h8.46v2.09a15.81,15.81,0,0,1,8.46-2.54,16.73,16.73,0,0,1,0,33.45A15,15,0,0,1,104.17,82.66Zm0-18.12v7.75a8.74,8.74,0,1,0,7.88-12.46A8.75,8.75,0,0,0,104.17,64.54Z"
	/>
	<path
		class="cls-1"
		d="M133.86,43.42a4.71,4.71,0,0,1,4.77-4.89,4.87,4.87,0,0,1,5,4.89,5,5,0,0,1-5,4.9A4.79,4.79,0,0,1,133.86,43.42Zm.51,8.85H143V84.76h-8.58Z"
	/>
	<path
		class="cls-1"
		d="M148,68.42a16.41,16.41,0,0,1,16.66-16.54,18.05,18.05,0,0,1,8.59,2.17V52.27h8.39V82.91c0,8.46-7.31,13-16.47,13-6,0-11.7-1.78-15.45-4.71l3.5-6a21.66,21.66,0,0,0,11.95,3.44c5.91,0,7.76-2.36,8-6.17a16.41,16.41,0,0,1-25.18-14ZM173.28,72V64.79a8.86,8.86,0,0,0-7.95-5.08,8.75,8.75,0,0,0-8.84,8.71c0,5,3.82,8.52,8.78,8.52A8.65,8.65,0,0,0,173.28,72Z"
	/>
	<path
		class="cls-1"
		d="M186.75,68.42a16.41,16.41,0,0,1,16.66-16.54A18,18,0,0,1,212,54.05V52.27h8.39V82.91c0,8.46-7.31,13-16.46,13-6,0-11.7-1.78-15.45-4.71l3.49-6a21.72,21.72,0,0,0,12,3.44c5.91,0,7.75-2.36,8-6.17a16.41,16.41,0,0,1-25.18-14ZM212,72V64.79a8.84,8.84,0,0,0-8-5.08,8.74,8.74,0,0,0-8.83,8.71c0,5,3.81,8.52,8.77,8.52A8.64,8.64,0,0,0,212,72Z"
	/>
	<path
		class="cls-1"
		d="M232.71,52.27,241.23,74,250,52.27h8.9L240.22,96.14h-7.95l4.7-11.7L223.3,52.27Z"
	/>
	<path
		class="cls-1"
		d="M257.32,52.27h9.09l8.26,21.93,8.21-21.93h8.9l-13,32.49h-8.52Z"
	/>
	<path
		class="cls-1"
		d="M292.41,68.29c0-9.16,6.55-16.72,16.79-16.72A16.51,16.51,0,0,1,326,68a14,14,0,0,1,0,2.42H300.42c.26,4.58,4.64,7.57,9.35,7.57a12.28,12.28,0,0,0,8.84-3.31l4.64,4.9a16.78,16.78,0,0,1-13.48,5.78C298.77,85.39,292.41,77.19,292.41,68.29Zm8.46-3.88h16.4c-.83-3-3.75-5.72-8.2-5.72C303.92,58.69,301.76,61.29,300.87,64.41Z"
	/>
	<path
		class="cls-1"
		d="M327.82,81.26,332,74.52a23.13,23.13,0,0,0,12.59,3.88c4.26,0,6.42-1.08,6.42-2.93,0-1.2-1-2.09-3.17-2.54L338.88,71c-6.54-1.4-9.53-4.51-9.53-9.6,0-5.4,4.57-9.92,14-9.92a27.76,27.76,0,0,1,14.3,3.82l-3.87,6.48c-2.87-1.52-6.68-3.18-10.69-3.18-3.62,0-5.72.89-5.72,2.55,0,1.08.76,1.78,2.86,2.16l7.51,1.4C355.92,66.32,359,69.94,359,74.84c0,7.06-7.06,10.74-14.75,10.74A31.17,31.17,0,0,1,327.82,81.26Z"
	/>
	<path
		class="cls-1"
		d="M360.75,52.27h4.83v-9L374,37.83V52.27h5v7.37h-5V84.76h-8.46V59.64h-4.83Z"
	/>
	<path
		class="cls-1"
		d="M74.56,58a32.55,32.55,0,0,0-1-6.13A35,35,0,0,0,58.27,30.94a34.62,34.62,0,0,0-16.33-5.46,37.52,37.52,0,0,0-7.34.19,37,37,0,0,0-7.52,1.83A35.55,35.55,0,0,0,5,51.25a36.16,36.16,0,0,0-1.22,7.24c-.07,1.27-.07,2.54-.07,3.8V93.12a3,3,0,0,0,3,3H18.67a3,3,0,0,0,3-2.7v0a3.82,3.82,0,0,0,.12-.89v-.71a.48.48,0,0,1,0-.17v0a.49.49,0,0,1,.23.11A35.6,35.6,0,0,0,42.6,96,35.83,35.83,0,0,0,48,95a35.06,35.06,0,0,0,19-12.44A34.82,34.82,0,0,0,74.5,64.17,34.15,34.15,0,0,0,74.56,58ZM45.51,77.72a.44.44,0,0,1-.45.38H33.35a.48.48,0,0,1-.46-.38v-.51a7.07,7.07,0,0,1,.18-1.6c.08-.18.12-.39.2-.59s.15-.38.22-.57.2-.37.3-.53.11-.17.17-.26.24-.33.36-.48.27-.32.41-.47a6.33,6.33,0,0,1,2.51-1.52,4.16,4.16,0,0,1,2-7.82,4.23,4.23,0,0,1,2.95,1.22,4.16,4.16,0,0,1-.95,6.6,6.32,6.32,0,0,1,4.34,6A4.36,4.36,0,0,1,45.51,77.72Zm20.26-25.6H12.64a.62.62,0,0,1-.59-.83,28.79,28.79,0,0,1,54.31,0A.63.63,0,0,1,65.77,52.12Z"
	/>
</svg>
